SplineFontDB: 3.0
FontName: AyannaNarrowSinhala-ExtraBold
FullName: AyannaNarrow
FamilyName: AyannaNarrow
Weight: ExtraBold
Copyright: Copyright (c) 2015, mooniak
UComments: "2015-3-5: Created with FontForge (http://fontforge.org)"
Version: pre
ItalicAngle: 0
UnderlinePosition: -102
UnderlineWidth: 51
Ascent: 819
Descent: 205
InvalidEm: 0
LayerCount: 2
Layer: 0 0 "Back" 1
Layer: 1 0 "Fore" 0
XUID: [1021 417 1726274797 7187508]
FSType: 0
OS2Version: 0
OS2_WeightWidthSlopeOnly: 0
OS2_UseTypoMetrics: 1
CreationTime: 1425560291
ModificationTime: 1440696166
OS2TypoAscent: 0
OS2TypoAOffset: 1
OS2TypoDescent: 0
OS2TypoDOffset: 1
OS2TypoLinegap: 92
OS2WinAscent: 0
OS2WinAOffset: 1
OS2WinDescent: 0
OS2WinDOffset: 1
HheadAscent: 0
HheadAOffset: 1
HheadDescent: 0
HheadDOffset: 1
OS2CapHeight: 0
OS2XHeight: 0
OS2Vendor: 'PfEd'
MarkAttachClasses: 1
DEI: 91125
Encoding: sinhala_final
UnicodeInterp: none
NameList: sinhala
DisplaySize: -128
AntiAlias: 1
FitToEm: 1
WidthSeparation: 154
WinInfo: 0 14 7
BeginPrivate: 0
EndPrivate
Grid
-1024 912 m 1024,2,-1
-1024 755 m 0,4,-1
 3561 755 l 1024
-1024 391 m 1024,16,-1
-1024 320 m 1024,18,-1
-1023 306 m 1024,20,-1
-1024 441 m 0,28,-1
 4285 441 l 1024
-1024 594 m 0,30,-1
 4338 594 l 1024
-1024 527 m 0,32,-1
 4338 527 l 1024
-1024 457.5 m 1024
-1024 489 m 0,35,-1
 4338 489 l 1024
-1024 458.5 m 1024
-1024 249 m 0,38,-1
 4167 249 l 1024
-1024 577 m 1024
-1024 204 m 0,41,-1
 4339 204 l 1024
-1024 122 m 0,43,-1
 4339 122 l 1024
-1024 79.5 m 0,45,-1
 4339 79.5 l 1024
4338 461 m 1024
-1032 405 m 0,48,-1
 4331 405 l 1024
EndSplineSet
BeginChars: 65541 507

StartChar: si_Tta
Encoding: 35 3495 0
Width: 538
VWidth: 0
Flags: HMW
LayerCount: 2
Back
Fore
SplineSet
252.72265625 755 m 4
 421.255859375 755 508.0078125 627.543945312 508.0078125 377.400390625 c 4
 508.0078125 79.5 396.145507812 0 260.145507812 0 c 4
 82.1455078125 0 30 136.287109375 30 252.395507812 c 4
 30 421.909179688 160.729492188 528.416992188 279.865234375 445.2578125 c 5
 242 345 l 5
 178.700195312 381.518554688 140 326.717773438 140 252.395507812 c 4
 140 189.243164062 167.225585938 115 260.145507812 115 c 4
 333.53515625 115 393.0078125 170.366210938 393.0078125 377.400390625 c 4
 393.0078125 551.28515625 350.041992188 640 252.72265625 640 c 4
 211.619140625 640 171.534179688 618.959960938 154.478515625 576.85546875 c 5
 45.4462890625 613.029296875 l 5
 81.4306640625 707.868164062 166.001953125 755 252.72265625 755 c 4
EndSplineSet
EndChar

StartChar: si_Sa
Encoding: 59 3523 1
Width: 598
VWidth: 0
Flags: HW
HStem: 0 122<1412.9 1484.05 1619.9 1687.09> 319.563 96.4365<1269.93 1313.96 1413.86 1507.41 1597.46 1687.33> 501.284 92.7158<1414.84 1496.92 1592.84 1680.65>
VStem: 1504.37 95.9111<139.916 249.5> 1515.5 75<416 546.103>
LayerCount: 2
Back
Fore
SplineSet
281.087890625 321 m 1
 269.087890625 360 273.056640625 396.735351562 273.056640625 428 c 0
 273.056640625 537.3359375 332.77734375 593.563476562 409.763671875 593.563476562 c 0
 527.177734375 593.563476562 587.762695312 464.833984375 519.056640625 374 c 1
 441.056640625 414 l 1
 465.28515625 444.241210938 454.419921875 496 409.763671875 496 c 0
 381.237304688 496 359.0078125 471.5078125 359.0078125 433.875 c 0
 359.0078125 428.211914062 359.51171875 422.2421875 360.572265625 416 c 1
 281.087890625 321 l 1
345.056640625 321 m 1
 265.572265625 416 l 1
 266.6328125 422.2421875 267.13671875 428.211914062 267.13671875 433.875 c 0
 267.13671875 471.5078125 244.907226562 497.436523438 216.380859375 497.436523438 c 0
 171.724609375 497.436523438 158.537109375 446.8046875 182.765625 416.563476562 c 1
 104.765625 376.563476562 l 1
 36.0595703125 467.397460938 98.966796875 593.563476562 216.380859375 593.563476562 c 0
 293.3671875 593.563476562 353.056640625 537.3359375 353.056640625 428 c 0
 353.056640625 396.735351562 357.056640625 360 345.056640625 321 c 1
360.572265625 416 m 1
 460.08203125 422.436523438 512.26953125 405 541.572265625 342 c 0
 599.228515625 218.041992188 568.650390625 0 420.81640625 0 c 0
 364.896484375 0 324.874023438 33.14453125 310.053710938 79.0302734375 c 1
 293.908203125 31.6025390625 250.736328125 0 198.056640625 0 c 0
 57.7421875 0 22.619140625 192.653320312 74.037109375 319.563476562 c 1
 30 319.666992188 l 1
 30 416 l 1
 265.572265625 416 l 1
 360.572265625 416 l 1
205.572265625 114 m 0
 252.272460938 114 264.447265625 175.66015625 264.447265625 249.5 c 1
 360.358398438 249.5 l 1
 360.358398438 176.205078125 373.701171875 115 416.69140625 115 c 0
 488.572265625 115 489.572265625 318 409.69140625 318 c 2
 212.572265625 318 l 2
 133.00390625 318 133.572265625 114 205.572265625 114 c 0
EndSplineSet
EndChar

StartChar: si_La
Encoding: 55 3517 2
Width: 617
VWidth: 0
Flags: HW
HStem: -205 110<249.534 405.762> 86.1064 109.2<357.858 451.886> 298 95<219.129 254.396 378.221 415.436> 450 110<241.89 413.833>
VStem: 30 114<36.2439 325.67> 231.527 117.784<204.271 291.225> 473 114<216.233 391.439>
LayerCount: 2
Back
Fore
SplineSet
144 174.5703125 m 0
 144 43.423828125 195.206054688 -95 326.581054688 -95 c 0
 419.70703125 -95 461.659179688 -28.6533203125 483.373046875 29.2333984375 c 1
 580.220703125 -5 l 1
 569.220703125 -62 507.548828125 -205 326.581054688 -205 c 0
 78.029296875 -205 30 59.345703125 30 174.23046875 c 0
 30 289.65625 70.8935546875 560 319.348632812 560 c 0
 509.109375 560 587 424.125 587 306.983398438 c 0
 585.982421875 151.3671875 505.786132812 86.1064453125 398.904296875 86.1064453125 c 0
 296.40625 86.1064453125 231.52734375 143.6640625 231.52734375 233.639648438 c 0
 231.52734375 260.26953125 238.076171875 299.662109375 254.395507812 320 c 1
 260.220703125 298 l 1
 219.12890625 298 l 1
 219.12890625 393 l 1
 415.435546875 393 l 1
 415.435546875 298 l 1
 353.220703125 298 l 1
 378.220703125 316.48046875 l 1
 403.87109375 301 l 2
 358.840820312 301 349.311523438 263.319335938 349.311523438 244.678710938 c 0
 349.311523438 223.780273438 364.31640625 195.306640625 399.9375 195.306640625 c 0
 451.6953125 195.306640625 473 227.530273438 473 304.974609375 c 0
 472.024414062 399.57421875 423.333984375 450 318.315429688 450 c 0
 172.973632812 450 144 288.518554688 144 174.5703125 c 0
EndSplineSet
EndChar

StartChar: si_Ddha
Encoding: 38 3498 3
Width: 590
VWidth: 0
Flags: HW
HStem: -203.419 159.545<-2589.77 -2489.9 -2313.93 -2208.45> 198.779 110.436<-2778.86 -2708.54 -2579.9 -2485.76>
VStem: -2745.09 138.128<-26.994 174.788> -2463.69 124.583<-19.8393 122.863>
LayerCount: 2
Back
Fore
SplineSet
560.484375 293 m 4
 560.484375 181.99609375 555 0 397.244140625 0 c 4
 341.32421875 0 303.301757812 33.14453125 288.481445312 79.0302734375 c 5
 272.3359375 31.6025390625 232.923828125 0 180.244140625 0 c 5
 64.4462890625 0 35.76171875 105.454101562 35.76171875 193.436523438 c 4
 35.76171875 234.737304688 47.244140625 280.436523438 61.244140625 306 c 5
 30 306 l 5
 30 391 l 5
 319.244140625 388 l 5
 353.083984375 304 l 5
 203 304.436523438 l 5
 162.244140625 304.436523438 142.76171875 245.162109375 142.76171875 193.436523438 c 4
 142.76171875 157.760742188 150.203125 115 180.244140625 115 c 4
 226.944335938 115 242.875 176.75 242.875 249.5 c 5
 338.786132812 249.5 l 5
 338.786132812 176.75 354.25390625 115 397.244140625 115 c 4
 445.244140625 115 445.484375 239.958007812 445.484375 293 c 4
 445.484375 390 428.799804688 492.959960938 408.614257812 556 c 4
 383.518554688 634.375976562 341.658203125 695.8671875 280.139648438 733 c 5
 352.139648438 817 l 5
 431.1171875 764.920898438 485.529296875 686.227539062 517.626953125 588 c 4
 541.615234375 514.590820312 560.484375 410 560.484375 293 c 4
415.139648438 557 m 5
 425.139648438 576 431.788085938 609.987304688 419.139648438 624 c 4
 412.942382812 630.865234375 378.139648438 656 367.139648438 652 c 5
 325.139648438 634 331.139648438 563 415.139648438 557 c 5
280.139648438 733 m 5
 346.139648438 781 l 5
 389.139648438 764 l 5
 439.045898438 736.635742188 509.508789062 491.768554688 431.139648438 461 c 5
 353.51953125 463.250976562 255.255859375 525 255.255859375 611.133789062 c 4
 255.255859375 686.51171875 328.047851562 697.581054688 280.139648438 733 c 5
178.15625 402.787109375 m 4
 178.15625 389.465820312 182.672851562 375.438476562 191.581054688 364.3203125 c 5
 115.870117188 326.3203125 l 5
 94.84375 354.120117188 85.5810546875 383.978515625 85.5810546875 412.419921875 c 4
 85.5810546875 484.68359375 137.646484375 529.563476562 211.948242188 529.563476562 c 4
 288.934570312 529.563476562 360.333007812 472.899414062 360.333007812 363.563476562 c 4
 360.333007812 349 357.139648438 323 353.083984375 304 c 5
 353.083984375 304 261.637695312 364.313476562 262.704101562 369.875 c 4
 269.244140625 404 253.244140625 442 211.948242188 442 c 4
 187.1484375 442 178.15625 424.133789062 178.15625 402.787109375 c 4
EndSplineSet
EndChar

StartChar: si_Dda
Encoding: 37 3497 4
Width: 590
VWidth: 0
Flags: HMW
LayerCount: 2
Back
Fore
SplineSet
445.484375 293 m 4
 445.484375 522.796875 381.83203125 639.884765625 256.91015625 639.884765625 c 4
 215.806640625 639.884765625 175.721679688 618.959960938 158.666015625 576.85546875 c 5
 49.6337890625 613.029296875 l 5
 85.6181640625 707.868164062 170.189453125 755 256.91015625 755 c 4
 457.693359375 755 560 599.055664062 560.484375 293 c 4
 560.484375 181.99609375 555 0 397.244140625 0 c 4
 341.32421875 0 303.301757812 33.14453125 288.481445312 79.0302734375 c 5
 272.3359375 31.6025390625 232.923828125 0 180.244140625 0 c 5
 64.4462890625 0 35.76171875 105.454101562 35.76171875 193.436523438 c 4
 35.76171875 234.737304688 47.244140625 280.436523438 61.244140625 306 c 5
 30 306 l 5
 30 391 l 5
 319.244140625 388 l 5
 353.083984375 304 l 5
 203 304.436523438 l 5
 162.244140625 304.436523438 142.76171875 245.162109375 142.76171875 193.436523438 c 4
 142.76171875 157.760742188 150.203125 115 180.244140625 115 c 4
 226.944335938 115 242.875 176.75 242.875 249.5 c 5
 338.786132812 249.5 l 5
 338.786132812 176.75 354.25390625 115 397.244140625 115 c 4
 445.244140625 115 445.484375 239.958007812 445.484375 293 c 4
178.15625 402.787109375 m 4
 178.15625 389.465820312 182.672851562 375.438476562 191.581054688 364.3203125 c 5
 115.870117188 326.3203125 l 5
 94.84375 354.120117188 85.5810546875 383.978515625 85.5810546875 412.419921875 c 4
 85.5810546875 484.68359375 137.646484375 529.563476562 211.948242188 529.563476562 c 4
 288.934570312 529.563476562 360.333007812 472.899414062 360.333007812 363.563476562 c 4
 360.333007812 349 357.139648438 323 353.083984375 304 c 5
 353.083984375 304 261.638671875 364.313476562 262.704101562 369.875 c 4
 269.244140625 404 253.244140625 442 211.948242188 442 c 4
 187.1484375 442 178.15625 424.133789062 178.15625 402.787109375 c 4
EndSplineSet
EndChar

StartChar: NameMe.12
Encoding: 65536 -1 5
Width: 717
VWidth: 0
Flags: HW
HStem: 0 122<214.569 291.459 426.925 508.2> 0 86<534.985 569.46> 307.551 84.4473<69 123.132 222.169 294.641>
VStem: 95 106.338<134.908 289.206> 311.634 95.9102<140.379 249.5>
LayerCount: 2
Back
Fore
SplineSet
534.985351562 86 m 5x78
 602.833007812 85 l 5
 717.241210938 -128.499023438 561.499023438 -244.220703125 365.967773438 -244.220703125 c 4
 205.981445312 -244.220703125 55.2255859375 -151.352539062 118.275390625 8 c 5
 224.985351562 -30 l 5
 163.985351562 -174 612.921875 -176 524.870117188 11 c 4
 534.985351562 86 l 5x78
243.032226562 445.086914062 m 4
 225.20703125 439.428710938 211.640625 420.435546875 221.481445312 391.998046875 c 5
 294.640625 391.998046875 l 5
 294.2109375 402.1484375 292.790039062 409.638671875 290.4765625 416.54296875 c 4
 281.34765625 443.784179688 259.970703125 450.462890625 243.032226562 445.086914062 c 4
269.69140625 750.219726562 m 5
 269.837890625 750.272460938 l 5
 267.502929688 763.051757812 l 5
 272.916015625 763.682617188 l 6
 362.2890625 774.09765625 446.462890625 740.361328125 505.037109375 685.104492188 c 4
 622.580078125 574.219726562 663.7734375 384.486328125 635.9375 186.834960938 c 4
 622.33203125 90.2265625 569.459960938 0 468.002929688 0 c 4
 412.08203125 0 372.0703125 33.142578125 357.240234375 79.02734375 c 5
 341.119140625 31.5908203125 297.922851562 0 245.243164062 0 c 4
 150.864257812 0 95 81.275390625 95 186.942382812 c 4
 95 228.936523438 107.108398438 276.842773438 123.131835938 305.666992188 c 5
 69 305.666992188 l 5
 69 391 l 5
 132.9921875 391 l 5
 130.538085938 405.115234375 130.2421875 416.875976562 131.6015625 428.748046875 c 4
 139.345703125 496.375 203.7109375 533.26953125 267.577148438 526.223632812 c 4
 341.333984375 518.086914062 411.94921875 451.995117188 394.74609375 311.889648438 c 6
 394.212890625 307.55078125 l 5
 235.772460938 307.55078125 l 5
 214.330078125 280.376953125 201.513671875 237.415039062 201.337890625 198.8046875 c 4
 201.138671875 155.053710938 217.03125 122 251.819335938 122 c 4
 296.704101562 122 311.633789062 173.137695312 311.633789062 244.5 c 6
 311.633789062 249.5 l 5
 407.543945312 249.5 l 5
 407.543945312 244.5 l 6
 407.543945312 173.000976562 422.655273438 122 463.877929688 122 c 4xb8
 483.083007812 122 511.063476562 125.640625 524.80078125 182.271484375 c 4
 544.754882812 264.529296875 540.53125 372.961914062 511.129882812 464.424804688 c 5
 279.165039062 426.54296875 341.004882812 656.65234375 293.423828125 652.633789062 c 4
 293.134765625 652.609375 292.844726562 652.590820312 292.5546875 652.55859375 c 6
 287.80078125 652.029296875 l 5
 287.782226562 652.130859375 l 5
 287.775390625 652.129882812 l 5
 286.947265625 656.65625 l 5
 269.69140625 750.219726562 l 5
407.791992188 579.803710938 m 4
 421.756835938 554.173828125 444.0703125 538.764648438 473.626953125 545.771484375 c 5
 461.384765625 565.178710938 444.452148438 586.458984375 428.813476562 600.876953125 c 4
 419.09375 609.837890625 406.803710938 619.052734375 395.883789062 625.185546875 c 5
 395.391601562 607.747070312 401.376953125 591.577148438 407.791992188 579.803710938 c 4
EndSplineSet
EndChar

StartChar: si_A
Encoding: 4 3461 6
Width: 576
VWidth: 0
Flags: HW
HStem: -5.16211 113.431<-1532.3 -1431.04> 332.06 87.5898<-1542.61 -1434.56>
VStem: -1692.09 107.548<157.947 289.699>
LayerCount: 2
Back
Fore
SplineSet
443.259765625 489 m 1
 396.259765625 457 402.858398438 403.255859375 402.259765625 327.2265625 c 1
 402.259765625 -205 l 1
 298.259765625 -205 l 1
 298.259765625 -4 l 1
 295.884765625 416 l 1
 295.884765625 416 308.259765625 489 353.954101562 533.184570312 c 1
 356.419921875 535.82421875 426.500976562 613.930664062 501.0546875 613.930664062 c 1
 501.33203125 614.115234375 537.103515625 560.6484375 543.259765625 552 c 1
 479.259765625 516 651.259765625 299 397.259765625 285 c 1
 399.259765625 374 l 1
 487.259765625 378 452.609375 451.747070312 443.259765625 489 c 1
546.22265625 156.064453125 m 1
 525.884765625 127 445.794921875 -8.3447265625 247 0 c 0
 127.884765625 5 30 96.6640625 30 217 c 0
 30 330.947265625 126.68359375 421.3515625 247 421.3515625 c 1
 265.834960938 421.3515625 278 420 295.806640625 418.436523438 c 1
 296.868164062 424.678710938 297.37109375 430.6484375 297.37109375 436.311523438 c 0
 297.37109375 473.944335938 275.141601562 498 246.615234375 498 c 0
 201.958984375 498 188.771484375 449.241210938 213 419 c 1
 135 379 l 1
 66.2939453125 469.833984375 129.201171875 596 246.615234375 596 c 0
 323.6015625 596 395 539.3359375 395 430 c 0
 395 398.735351562 388 357 376 318 c 1
 376 318 295.53125 318 247 318 c 0
 191 318 146 273 146 217 c 0
 146 161 189.884765625 120 247 116 c 0
 388.15234375 106.114257812 445.415039062 199.377929688 459.884765625 218.458984375 c 1
 546.22265625 156.064453125 l 1
EndSplineSet
EndChar

StartChar: si_U
Encoding: 10 3467 7
Width: 589
VWidth: 0
Flags: HW
HStem: -205 110<118.205 275.761> 320 95<129.769 261.602>
VStem: -79.8955 113.771<-3.08526 215.724>
LayerCount: 2
Back
Fore
SplineSet
327.139648438 320 m 5
 375.670898438 320 456.139648438 320 456.139648438 320 c 5
 468.139648438 359 475.139648438 400.735351562 475.139648438 432 c 4
 475.139648438 541.3359375 403.741210938 598 326.754882812 598 c 4
 209.340820312 598 146.43359375 471.833984375 215.139648438 381 c 5
 293.139648438 421 l 5
 268.911132812 451.241210938 282.098632812 500 326.754882812 500 c 4
 355.28125 500 377.510742188 475.944335938 377.510742188 438.311523438 c 4
 377.510742188 432.6484375 377.006835938 426.678710938 375.946289062 420.436523438 c 5
 358.139648438 422 345.974609375 423.3515625 327.139648438 423.3515625 c 5
 120.673828125 423.3515625 30 266.01953125 30 106 c 4
 30 -49.3154296875 122.942382812 -205 309.104492188 -205 c 4
 456.188476562 -205 546.76953125 -108.100585938 559.104492188 6 c 5
 445.66796875 22 l 5
 436.840820312 -41.00390625 384.252929688 -89 309.104492188 -89 c 4
 195.104492188 -89 143.770507812 0.208984375 143.770507812 106 c 4
 143.770507812 213.90625 199.7265625 320 327.139648438 320 c 5
EndSplineSet
EndChar

StartChar: si_Da
Encoding: 43 3503 8
Width: 477
VWidth: 0
Flags: HW
LayerCount: 2
Back
Fore
SplineSet
247 318 m 0
 191 318 146 273 146 217 c 0
 146 161 191 116 247 116 c 0
 282.29296875 116 313.569335938 131.385742188 333.662109375 155.436523438 c 1
 420 93.0419921875 l 1
 379.889648438 36.2998046875 317.454101562 0 247 0 c 0
 126.6640625 0 30 96.6640625 30 217 c 0
 30 330.947265625 126.68359375 421.3515625 247 421.3515625 c 1
 265.834960938 421.3515625 278 420 295.806640625 418.436523438 c 1
 296.868164062 424.678710938 297.37109375 430.6484375 297.37109375 436.311523438 c 0
 297.37109375 473.944335938 275.141601562 498 246.615234375 498 c 0
 217.259765625 498 201.431640625 477 201.431640625 453.1640625 c 0
 201.431640625 441.108398438 205.016601562 428.124023438 213 419 c 1
 135 379 l 1
 115.690429688 404.20703125 107.956054688 430.604492188 107.956054688 458.407226562 c 0
 107.956054688 534.13671875 160.055664062 596 246.615234375 596 c 0
 323.60546875 596 395 539.3359375 395 430 c 0
 395 398.735351562 388 357 376 318 c 1
 376 318 295.53125 318 247 318 c 0
391 -54.5634765625 m 1
 468 -106.563476562 l 1
 422.088867188 -175.430664062 367.333007812 -202.407226562 317.0546875 -202.407226562 c 0
 192.673828125 -202.407226562 122.862304688 -78.939453125 186 21.5380859375 c 1
 276 44.4365234375 l 1
 286 4 l 1
 256.696289062 -29.796875 264.99609375 -97 317.0546875 -97 c 0
 341.685546875 -97 368.508789062 -85.0556640625 391 -54.5634765625 c 1
EndSplineSet
EndChar

StartChar: si_Va
Encoding: 56 3520 9
Width: 551
VWidth: 0
Flags: HW
LayerCount: 2
Back
Fore
SplineSet
251.04296875 755 m 4
 390.514648438 755 521.188476562 675.859375 521.188476562 354 c 4
 521.188476562 118 440.188476562 0 260.188476562 0 c 4
 82.1884765625 0 30 137 30 218.826171875 c 4
 30 279.354492188 49.8984375 335.661132812 80.3779296875 362 c 4
 101.397460938 380.1640625 129.474609375 391 166.076171875 391 c 4
 173.076171875 391 246.71875 391 260.188476562 391 c 5
 289.188476562 363 334.1328125 306 334.1328125 306 c 5
 310.125 306 209.076171875 306 209.076171875 306 c 6
 153.076171875 306 140.67578125 270.6015625 140.67578125 226.6015625 c 4
 140.67578125 174 167.268554688 115 260.188476562 115 c 4
 364.640625 115 406.188476562 195.017578125 406.188476562 354 c 4
 406.188476562 583 333.868164062 639.884765625 251.04296875 639.884765625 c 4
 209.939453125 639.884765625 169.854492188 618.959960938 152.798828125 576.85546875 c 5
 43.7666015625 613.029296875 l 5
 79.7509765625 707.868164062 164.322265625 755 251.04296875 755 c 4
180.188476562 356 m 5
 100.188476562 318.563476562 l 5
 80.1884765625 351 69.724609375 380.620117188 69.724609375 409.272460938 c 4
 69.724609375 481.53515625 118.6953125 531.563476562 192.997070312 531.563476562 c 4
 269.983398438 531.563476562 341.381835938 474.899414062 341.381835938 365.563476562 c 4
 341.381835938 351 338.188476562 325 334.1328125 306 c 5
 334.1328125 306 242.6875 366.313476562 243.752929688 371.875 c 4
 250.29296875 406 234.29296875 444 192.997070312 444 c 4
 168.197265625 444 159.205078125 426.133789062 159.205078125 404.787109375 c 4
 159.205078125 386.79296875 171.490234375 370.325195312 180.188476562 356 c 5
EndSplineSet
EndChar

StartChar: si_Ca
Encoding: 28 3488 14
Width: 545
VWidth: 0
Flags: HW
HStem: 0 115.115<253.186 396.76> 306 85.998<83.7617 124.762 230.243 303.403> 446.801 80.2871<229.26 294.51>
VStem: 139.594 87.3271<391.998 443.931> 303.403 102.327<391.998 439.476> 464.273 114.116<198.736 531.477>
LayerCount: 2
Back
Fore
SplineSet
147.041015625 237 m 4
 136.459960938 185 160.76171875 115 254.76171875 115 c 4
 359.213867188 115 400.76171875 195.017578125 400.76171875 354 c 4
 400.76171875 583 328.44140625 639.884765625 245.616210938 639.884765625 c 4
 204.512695312 639.884765625 164.427734375 618.959960938 147.372070312 576.85546875 c 5
 38.33984375 613.029296875 l 5
 74.32421875 707.868164062 158.895507812 755 245.616210938 755 c 4
 385.087890625 755 515.76171875 675.859375 515.76171875 354 c 4
 515.76171875 118 434.76171875 0 254.76171875 0 c 4
 76.76171875 0 27.3212890625 133.560546875 37.353515625 223 c 4
 40.9697265625 255.19921875 50.34375 286.096679688 61.244140625 306 c 5
 30 306 l 5
 30 393 l 5
 294.866210938 390 l 5
 328.706054688 306 l 5
 203 306 l 6
 170.672851562 306 154.05859375 271.489257812 147.041015625 237 c 4
174.76171875 356 m 5
 94.76171875 318.563476562 l 5
 74.76171875 351 64.2978515625 380.620117188 64.2978515625 409.272460938 c 4
 64.2978515625 481.53515625 113.268554688 531.563476562 187.5703125 531.563476562 c 4
 264.556640625 531.563476562 335.955078125 474.899414062 335.955078125 365.563476562 c 4
 335.955078125 351 332.76171875 325 328.706054688 306 c 5
 328.706054688 306 237.260742188 366.313476562 238.326171875 371.875 c 4
 244.866210938 406 228.866210938 444 187.5703125 444 c 4
 162.770507812 444 153.778320312 426.133789062 153.778320312 404.787109375 c 4
 153.778320312 386.79296875 166.063476562 370.325195312 174.76171875 356 c 5
EndSplineSet
EndChar

StartChar: si_Ma
Encoding: 51 3512 15
Width: 549
VWidth: 0
Flags: HW
HStem: 0 115.115<199.284 342.122> 360.222 59.7783<263.381 304.345> 433 94<148.636 185.317> 468.895 58.2246<252.898 306.016>
VStem: 30 101.713<197.603 420.956> 199.233 39.7666<409.347 467.142> 306.447 65.8906<299.968 474.186> 413 106.854<211.847 518.227>
LayerCount: 2
Back
Fore
SplineSet
519.854492188 377.395507812 m 0
 519.854492188 204 480 0 271 0 c 0
 119.12890625 0 30 127 30 296 c 0
 30 410.515625 50 527 154 527 c 0
 194.403320312 527 223.78515625 511.5234375 236.744140625 475 c 0
 242.603515625 458.48828125 249.586914062 438.947265625 249.7109375 408 c 0
 249.8046875 384.65234375 238.03515625 364.890625 238 344 c 0
 237.962890625 322.444335938 251.0390625 308.720703125 265.854492188 308.57421875 c 0
 285.60546875 308.37890625 290.9375 350.478515625 290.854492188 382 c 0
 290.854492188 403.85546875 285.013671875 443.763671875 263.854492188 443.822265625 c 0
 246.833984375 443.869140625 230.854492188 436 229.854492188 409 c 0
 228.94140625 384.350585938 179.844726562 408.983398438 179.854492188 430 c 0
 179.880859375 488.650390625 214.533203125 526.969726562 269.854492188 527 c 0
 351.116210938 527.043945312 371.337890625 466.00390625 371.337890625 382.768554688 c 0
 371.337890625 299.954101562 369.737304688 220.44140625 266.854492188 220.552734375 c 0
 193.252929688 220.631835938 162.115234375 272.322265625 162.250976562 333 c 0
 162.383789062 392.200195312 187.419921875 433 159 433 c 0xef
 138.932617188 433 130.712890625 381.952148438 130.712890625 300.756835938 c 0
 130.712890625 222.424804688 162.672851562 115.115234375 271 115.115234375 c 0
 388 115.115234375 413 244.619140625 413 377.395507812 c 0
 413 459.568359375 397.100585938 540.287109375 361.685546875 590 c 0
 312.930664062 658.4375 193.854492188 654 161.854492188 575 c 1
 55.75390625 613.290039062 l 1
 115.854492188 789 365.776367188 804.66015625 461.028320312 646 c 0
 513.041015625 559.36328125 519.854492188 442.221679688 519.854492188 377.395507812 c 0
EndSplineSet
EndChar

StartChar: si_Ga
Encoding: 24 3484 16
Width: 673
VWidth: 0
Flags: HW
HStem: 0 119.812<-645.249 -518.047 -416.227 -290.834> 276 95<-531.629 -471.629> 473.877 119.812<-645.249 -532.841 -422.671 -290.619>
VStem: -797 103.468<176.762 415.557> -531.629 60<276 371> -490.629 91<182.79 293.523> -242.551 103.468<178.131 416.926>
LayerCount: 2
Back
Fore
SplineSet
235 110 m 0
 185.415039062 110 140 149.375 140 296.921875 c 0
 140 438.581054688 175.26953125 486 218.372070312 486 c 0
 260 486 274.823242188 452.5859375 280 436 c 1
 345 508 l 1
 335.71484375 543.978515625 294.286132812 594 218.372070312 594 c 0
 114.772460938 594 30 519.49609375 30 296.921875 c 0
 30 62.546875 128.000976562 0 235 0 c 0
 365.560546875 0 418.9921875 104.57421875 418.9921875 199 c 0
 418.9921875 255.70703125 395 330 325 350 c 1
 258 280 l 1
 270.262695312 275.094726562 316 249 316 199 c 0
 316 155.278320312 296 110 235 110 c 0
438.907226562 0.15625 m 0
 545.90625 0.15625 643.907226562 62.703125 643.907226562 297.078125 c 0
 643.907226562 531.453125 545.90625 594 438.907226562 594 c 0
 359 594 274 527 274 401 c 0
 274 369 270 344 218 311 c 1
 271 220 l 1
 331 254 376 306.241210938 376 362 c 0
 376 438 391.495117188 484 438.907226562 484 c 1
 488.4921875 484 533.907226562 444.625 533.907226562 297.078125 c 0
 533.907226562 147.163085938 488.487304688 108 438.907226562 108 c 1
 397.279296875 108 382.456054688 141.5703125 377.279296875 158.15625 c 1
 312.279296875 86.15625 l 1
 321.564453125 50.1787109375 362.993164062 0.15625 438.907226562 0.15625 c 0
EndSplineSet
EndChar

StartChar: si_Ya
Encoding: 53 3514 17
Width: 586
VWidth: 0
Flags: HW
HStem: 0 122<159.355 231.758 367.309 434.503> 319.563 96.4365<345.992 431.44> 501.284 92.7158<357.284 438.099>
VStem: 30 101.472<156.047 396.65> 251.782 95.9111<139.916 249.5>
LayerCount: 2
Back
Fore
SplineSet
397.025390625 319.563476562 m 6
 476.907226562 319.303710938 475.90625 122 404.025390625 122 c 4
 361.03515625 122 347.692382812 176.75 347.692382812 249.5 c 5
 251.78125 249.5 l 5
 251.78125 176.75 239.606445312 122 192.90625 122 c 4
 142.70703125 122 131.471679688 228.951171875 131.471679688 283 c 4
 131.471679688 366.8359375 156.90625 441 211.90625 441 c 5
 214.422851562 548.772460938 l 5
 90.3603515625 548.772460938 30 418.984375 30 269.495117188 c 4
 30 147.606445312 69.0908203125 0 185.390625 0 c 4
 238.0703125 0 281.2421875 31.6025390625 297.387695312 79.0302734375 c 5
 312.208007812 33.14453125 352.23046875 0 408.150390625 0 c 4
 555.984375 0 586.5625 218.041992188 528.90625 342 c 4
 499.603515625 405 447.416015625 422.436523438 347.90625 416 c 5
 336.90625 486 375.375976562 501.284179688 401.401367188 501.284179688 c 4
 439.884765625 501.284179688 457.90625 461 432.90625 413 c 5
 435.90625 369 l 5
 500.90625 372 l 5
 572.90625 489 508.333007812 594 404.712890625 594 c 4
 285.07421875 594 224.90625 489 262.90625 320 c 13
 397.025390625 319.563476562 l 6
EndSplineSet
EndChar

StartChar: si_Ka
Encoding: 22 3482 19
Width: 770
VWidth: 0
Flags: HW
LayerCount: 2
Back
Fore
SplineSet
362 432 m 5
 384.44140625 443 523 431 523 210 c 4
 523 112.106445312 482 0 376 0 c 4
 295 0 286.5 79 286.5 79 c 5
 286.5 79 276 0 204 0 c 4
 81 0 87 123 98 141 c 5
 207 249 l 5
 180 227.963867188 177 191.751953125 177 156 c 4
 177 138.591796875 183.720703125 109 207 109 c 4
 233 109 242 142 242 227 c 5
 331 227 l 5
 331 145 347 109 376 109 c 4
 409 109 416 165.987304688 416 210 c 4
 416 335.987304688 340 370 289 352 c 5
 362 432 l 5
76.787109375 462.427734375 m 4
 76.787109375 531 118.171875 583 199 583 c 4
 275.986328125 583 350.6953125 526.772460938 350.6953125 417.436523438 c 4
 350.6953125 386.171875 349 368.627929688 347 356.627929688 c 5
 254.404296875 406.627929688 l 5
 255.46484375 412.870117188 255.067382812 418.912109375 255.96875 424.502929688 c 4
 256.735351562 429.259765625 257.1015625 433.818359375 257.1015625 438.1640625 c 4
 257.1015625 472.963867188 233.64453125 494.100585938 204.912109375 494.100585938 c 4
 179.06640625 494.100585938 163.776367188 479.469726562 163.776367188 455.907226562 c 4
 163.776367188 422 194 394 239 374 c 5
 176 311 l 5
 88 359 76.787109375 432 76.787109375 462.427734375 c 4
496 482 m 4
 462.806640625 482 423.765625 473.506835938 375 423 c 4
 371.435546875 419.307617188 86.4580078125 122.674804688 78 115 c 5
 30 202 l 4
 97 271 126.060546875 298.06640625 186 364 c 4
 206 386 294 489 294 489 c 4
 343 545 406 594 496 594 c 4
 602.999023438 594 740 513.375 740 279 c 4
 740 56.42578125 646.227539062 0 542.627929688 0 c 4
 466.713867188 0 425.28515625 50.021484375 416 86 c 5
 481 158 l 5
 486.176757812 141.4140625 501 108 542.627929688 108 c 4
 585.73046875 108 629 137.340820312 629 279 c 4
 629 426.546875 545.584960938 482 496 482 c 4
EndSplineSet
EndChar

StartChar: si_Ra
Encoding: 54 3515 20
Width: 475
VWidth: 0
Flags: HW
LayerCount: 2
Back
Fore
SplineSet
373.545898438 779 m 0
 262.545898438 779 l 0
 262.545898438 723 229.098632812 679.428710938 185.545898438 630 c 0
 134.440429688 572 91.5458984375 523 91.5458984375 523 c 1
 108.545898438 474 l 1
 223.545898438 514 l 1
 223.545898438 514 277.890625 573.689453125 312.123046875 612 c 0
 350.545898438 655 373.545898438 720 373.545898438 779 c 0
237.545898438 593.688476562 m 0
 97.9287109375 593.688476562 30 465.076171875 30 296.84375 c 0
 30 127.073242188 97.9287109375 0 237.545898438 0 c 0
 377.749023438 0 445.67578125 127.073242188 445.67578125 296.84375 c 0
 445.67578125 465.076171875 377.749023438 593.688476562 237.545898438 593.688476562 c 0
  Spiro
    237.546 593.688 o
    121.776 554.19 o
    52.7359 448.442 o
    29.9959 296.844 o
    52.7359 144.563 o
    121.776 39.1574 o
    237.546 0 o
    353.726 39.1574 o
    422.916 144.563 o
    445.676 296.844 o
    422.916 448.442 o
    353.726 554.19 o
    0 0 z
  EndSpiro
239.407226562 473.876953125 m 0
 313.970703125 473.876953125 341.07421875 389.764648438 341.07421875 295.41796875 c 0
 341.07421875 199.53125 313.970703125 119.811523438 239.407226562 119.811523438 c 0
 162.177734375 119.811523438 133.467773438 199.53125 133.467773438 295.41796875 c 0
 133.467773438 389.764648438 162.177734375 473.876953125 239.407226562 473.876953125 c 0
  Spiro
    239.406 473.877 o
    298.856 448.624 o
    331.306 383.538 o
    341.076 295.418 o
    331.306 207.352 o
    298.856 143.985 o
    239.406 119.812 o
    177.666 143.985 o
    143.746 207.352 o
    133.466 295.418 o
    143.746 383.538 o
    177.666 448.624 o
    0 0 z
  EndSpiro
EndSplineSet
EndChar

StartChar: si_Pha
Encoding: 48 3509 22
Width: 564
VWidth: 0
Flags: HW
HStem: 1 122<-1836.62 -1707.81 -1603.81 -1445.78> 451.179 92.9785<-1567.47 -1453.85>
VStem: -1939.4 110<96 520.405> -1707.81 110<96 408.771> -1419.81 110<136.707 405.444>
LayerCount: 2
Back
Fore
SplineSet
260.188476562 115 m 4
 364.640625 115 419.188476562 181.017578125 419.188476562 340 c 4
 419.188476562 521.698242188 372.188476562 668 261.188476562 735 c 5
 333.188476562 819 l 5
 471.188476562 728 534.188476562 555.741210938 534.188476562 340 c 4
 534.188476562 104 440.188476562 0 260.188476562 0 c 4
 82.1884765625 0 30 137 30 218.826171875 c 4
 30 279.354492188 49.8984375 335.661132812 80.3779296875 362 c 4
 101.397460938 380.1640625 129.474609375 391 166.076171875 391 c 4
 173.076171875 391 258.71875 391 272.188476562 391 c 5
 312.3828125 373 334.1328125 306 334.1328125 306 c 5
 310.125 306 209.076171875 306 209.076171875 306 c 6
 153.076171875 306 140.67578125 270.6015625 140.67578125 226.6015625 c 4
 140.67578125 174 167.268554688 115 260.188476562 115 c 4
180.188476562 356 m 5
 100.188476562 318.563476562 l 5
 80.1884765625 351 69.724609375 380.620117188 69.724609375 409.272460938 c 4
 69.724609375 481.53515625 118.6953125 531.563476562 192.997070312 531.563476562 c 4
 269.983398438 531.563476562 341.381835938 474.899414062 341.381835938 365.563476562 c 4
 341.381835938 351 338.188476562 325 334.1328125 306 c 5
 334.1328125 306 242.6875 366.313476562 243.752929688 371.875 c 4
 250.29296875 406 234.29296875 444 192.997070312 444 c 4
 168.197265625 444 159.205078125 426.133789062 159.205078125 404.787109375 c 4
 159.205078125 386.79296875 171.490234375 370.325195312 180.188476562 356 c 5
396.188476562 559 m 5
 406.188476562 578 412.836914062 611.987304688 400.188476562 626 c 4
 393.991210938 632.865234375 359.188476562 658 348.188476562 654 c 5
 306.188476562 636 312.188476562 565 396.188476562 559 c 5
261.188476562 735 m 5
 327.188476562 783 l 5
 370.188476562 766 l 5
 420.094726562 738.635742188 490.557617188 493.768554688 412.188476562 463 c 5
 334.568359375 465.250976562 236.3046875 527 236.3046875 613.133789062 c 4
 236.3046875 688.51171875 309.096679688 699.581054688 261.188476562 735 c 5
EndSplineSet
EndChar

StartChar: si_Nna
Encoding: 39 3499 23
Width: 958
VWidth: 0
Flags: HW
LayerCount: 2
Back
Fore
SplineSet
112.099609375 22 m 5
 238 202 l 5
 152 255 l 5
 30 72 l 5
 112.099609375 22 l 5
772 437 m 5
 808.239257812 437 813.840820312 351.390625 813.840820312 290 c 4
 813.840820312 221.103515625 810.262695312 110 726 110 c 4
 665 110 654 141 643 168 c 5
 547 134 l 5
 559 48 641.4609375 0 726 0 c 4
 920.578125 0 928.840820312 179 928.840820312 290 c 4
 928.840820312 399 907.842773438 551 772 551 c 4
 734.891601562 551 705.6953125 532.997070312 688.584960938 507.845703125 c 5
 674.330078125 528.505859375 645.516601562 551 604.95703125 551 c 4
 502 551 458.16015625 446 474 299 c 4
 559 266 l 5
 568 318 556 437 604.95703125 437 c 4
 628.795898438 437 641.732421875 416 641.732421875 362 c 4
 641.732421875 296.864257812 641.95703125 269 641.95703125 269 c 5
 735 269 l 5
 735 269 735.224609375 296.864257812 735.224609375 362 c 4
 735.224609375 416 748.161132812 437 772 437 c 5
184.235351562 298.48828125 m 4
 184.235351562 325.829101562 206.106445312 347.702148438 233.446289062 347.702148438 c 4
 260.786132812 347.702148438 282.659179688 325.829101562 282.659179688 298.48828125 c 4
 282.659179688 271.1484375 260.786132812 249.27734375 233.446289062 249.27734375 c 4
 206.106445312 249.27734375 184.235351562 271.1484375 184.235351562 298.48828125 c 4
88.0146484375 298.48828125 m 4
 88.0146484375 216.549804688 153.564453125 151 235.502929688 151 c 4
 317.444335938 151 383 216.549804688 383 298.48828125 c 4
 383 336.970703125 368.541015625 371.838867188 344.717773438 398 c 4
 321.909179688 423.046875 287.567382812 437 254.227539062 437 c 4
 217.885742188 437 182.732421875 420.948242188 165 398 c 5
 121.423828125 370.978515625 88.0146484375 335.545898438 88.0146484375 298.48828125 c 4
561 297.078125 m 4
 561 496 437.381835938 594 297 594 c 4
 108 594 24 382 103 233 c 5
 148 285 l 5
 173 371 l 5
 173 426.325195312 210 480 297 480 c 4
 374.28125 480 446 416 446 297.078125 c 4
 446 178.529296875 378.16796875 112 284.4765625 112 c 4
 238 112 210 136 186 133 c 5
 112.099609375 22 l 5
 182 74 197 0 311 0 c 4
 513.340820312 0 561 186.46484375 561 297.078125 c 4
422 496 m 5
 540 677 l 5
 453.33984375 732 l 5
 338 555 l 5
 422 496 l 5
EndSplineSet
EndChar

StartChar: si_I
Encoding: 8 3465 24
Width: 547
VWidth: 0
Flags: HW
LayerCount: 2
Back
Fore
SplineSet
517.600585938 297.078125 m 0
 517.600585938 496 393.982421875 594 253.600585938 594 c 0
 64.6005859375 594 -19.3994140625 382 59.6005859375 233 c 1
 104.600585938 285 l 1
 129.600585938 371 l 1
 129.600585938 426.325195312 166.600585938 480 253.600585938 480 c 0
 330.881835938 480 402.600585938 416 402.600585938 297.078125 c 0
 402.600585938 210.806640625 336.600585938 86 192.600585938 94 c 1
 177.600585938 0 l 1
 422.600585938 -40 517.600585938 176.49609375 517.600585938 297.078125 c 0
301.434570312 -49 m 0
 301.434570312 -78.2548828125 276.978515625 -98.3525390625 246.412109375 -98.3525390625 c 0
 225.057617188 -98.3525390625 200.719726562 -87.1220703125 179.655273438 -58.5634765625 c 1
 102.655273438 -110.563476562 l 1
 144.484375 -176.14453125 203.438476562 -204.817382812 258.423828125 -204.817382812 c 0
 337.44921875 -204.817382812 408.275390625 -143.0078125 408.275390625 -49 c 0
 408.275390625 17 356.600585938 46 342.600585938 63 c 1
 218.600585938 56 l 1
 263.600585938 21 301.434570312 21 301.434570312 -49 c 0
44.615234375 298.48828125 m 0
 44.615234375 216.549804688 110.165039062 151 192.103515625 151 c 0
 274.044921875 151 339.600585938 216.549804688 339.600585938 298.48828125 c 0
 339.600585938 336.970703125 325.142578125 371.838867188 301.318359375 398 c 0
 278.509765625 423.046875 244.16796875 437 210.828125 437 c 0
 174.486328125 437 139.333007812 420.948242188 121.600585938 398 c 1
 78.0244140625 370.978515625 44.615234375 335.545898438 44.615234375 298.48828125 c 0
140.8359375 298.48828125 m 0
 140.8359375 325.829101562 162.70703125 347.702148438 190.046875 347.702148438 c 0
 217.38671875 347.702148438 239.259765625 325.829101562 239.259765625 298.48828125 c 0
 239.259765625 271.1484375 217.38671875 249.27734375 190.046875 249.27734375 c 0
 162.70703125 249.27734375 140.8359375 271.1484375 140.8359375 298.48828125 c 0
EndSplineSet
EndChar

StartChar: si_Pa
Encoding: 47 3508 25
Width: 589
VWidth: 0
Flags: HW
LayerCount: 2
Back
Fore
SplineSet
376 416 m 16
 498.3828125 416 559.439453125 329.65234375 559.439453125 224 c 0
 559.439453125 -91 30 -90.99609375 30 224 c 0
 30 329.65234375 91.056640625 416 213.439453125 416 c 0
 232.921875 416 244.201171875 416 244.201171875 416 c 2
 277.439453125 416 311.439453125 416 345.23828125 416 c 2
 345.23828125 416 350.95703125 416 376 416 c 16
370 318 m 0
 305.012695312 318 284.426757812 318 219.439453125 318 c 0
 164.439453125 318 137 275.725585938 137 224 c 0
 137 63.9228515625 452.439453125 64.5234375 452.439453125 224 c 0
 452.439453125 275.725585938 425 318 370 318 c 0
235.95703125 391 m 1
 245.712890625 416 l 1
 246.774414062 422.2421875 247.27734375 428.211914062 247.27734375 433.875 c 0
 247.27734375 471.5078125 225.047851562 495.563476562 196.521484375 495.563476562 c 0
 167.166015625 495.563476562 151.337890625 474.563476562 151.337890625 450.727539062 c 0
 151.337890625 438.671875 157.973632812 419.124023438 165.95703125 410 c 1
 87.95703125 370 l 1
 68.6474609375 395.20703125 57.8623046875 428.16796875 57.8623046875 455.970703125 c 0
 57.8623046875 531.700195312 109.961914062 593.563476562 196.521484375 593.563476562 c 0
 273.51171875 593.563476562 344.90625 536.899414062 344.90625 427.563476562 c 0
 344.90625 396.298828125 337.95703125 358 325.95703125 319 c 1
 235.95703125 391 l 1
353.482421875 391 m 1
 263.482421875 319 l 1
 251.482421875 358 244.533203125 396.298828125 244.533203125 427.563476562 c 0
 244.533203125 536.899414062 315.927734375 593.563476562 392.91796875 593.563476562 c 0
 479.477539062 593.563476562 531.577148438 531.700195312 531.577148438 455.970703125 c 0
 531.577148438 428.16796875 520.791992188 395.20703125 501.482421875 370 c 1
 423.482421875 410 l 1
 431.465820312 419.124023438 438.1015625 438.671875 438.1015625 450.727539062 c 0
 438.1015625 474.563476562 422.2734375 495.563476562 392.91796875 495.563476562 c 0
 364.391601562 495.563476562 342.162109375 471.5078125 342.162109375 433.875 c 0
 342.162109375 428.211914062 342.665039062 422.2421875 343.7265625 416 c 1
 353.482421875 391 l 1
EndSplineSet
EndChar

StartChar: si_E
Encoding: 16 3473 26
Width: 558
VWidth: 0
Flags: HW
HStem: -38.2314 87.1836<-1109.49 -990.376 -819.735 -708.307> 492.911 99.7012<-938.819 -889.162> 665.621 94.5781<-964.474 -794.026>
VStem: -1239.97 100.06<77.4772 191.075> -1173.54 95.8447<337.183 545.813> -1027.89 86.1113<435.808 491.933> -677.015 96.248<80.9554 204.048>
LayerCount: 2
Back
Fore
SplineSet
254.76171875 115 m 0
 359.213867188 115 413.76171875 181.017578125 413.76171875 340 c 0
 413.76171875 521.698242188 366.76171875 668 255.76171875 735 c 1
 327.76171875 819 l 1
 465.76171875 728 528.76171875 555.741210938 528.76171875 340 c 0
 528.76171875 104 434.76171875 0 254.76171875 0 c 0
 76.76171875 0 27.30859375 133.561523438 37.353515625 223 c 0
 40.9697265625 255.19921875 51.76171875 286 66.76171875 306 c 1
 30 306 l 1
 30 393 l 1
 294.866210938 390 l 1
 328.706054688 306 l 1
 221.76171875 306 l 2
 164.9765625 306 144.743164062 261.911132812 144.743164062 214.068359375 c 0
 144.743164062 166.573242188 174.077148438 115 254.76171875 115 c 0
174.76171875 356 m 1
 94.76171875 318.563476562 l 1
 74.76171875 351 64.2978515625 380.620117188 64.2978515625 409.272460938 c 0
 64.2978515625 481.53515625 113.268554688 531.563476562 187.5703125 531.563476562 c 0
 264.556640625 531.563476562 335.955078125 474.899414062 335.955078125 365.563476562 c 0
 335.955078125 351 332.76171875 325 328.706054688 306 c 1
 328.706054688 306 237.260742188 366.313476562 238.326171875 371.875 c 0
 244.866210938 406 228.866210938 444 187.5703125 444 c 0
 162.770507812 444 153.778320312 426.133789062 153.778320312 404.787109375 c 0
 153.778320312 386.79296875 166.063476562 370.325195312 174.76171875 356 c 1
390.76171875 559 m 1
 400.76171875 578 407.41015625 611.987304688 394.76171875 626 c 0
 388.564453125 632.865234375 353.76171875 658 342.76171875 654 c 1
 300.76171875 636 306.76171875 565 390.76171875 559 c 1
255.76171875 735 m 1
 321.76171875 783 l 1
 364.76171875 766 l 1
 414.66796875 738.635742188 485.130859375 493.768554688 406.76171875 463 c 1
 329.141601562 465.250976562 230.877929688 527 230.877929688 613.133789062 c 0
 230.877929688 688.51171875 303.669921875 699.581054688 255.76171875 735 c 1
EndSplineSet
EndChar

StartChar: zwnj
Encoding: 82 8204 49
Width: 0
VWidth: 0
Flags: HW
LayerCount: 2
Back
Fore
SplineSet
-39.5 -10.75 m 257
 -39.5 780.75 l 257
 39.5 780.75 l 257
 39.5 -10.75 l 257
 -39.5 -10.75 l 257
EndSplineSet
EndChar

StartChar: zwj
Encoding: 83 8205 50
Width: 0
VWidth: 0
Flags: HW
LayerCount: 2
Back
Fore
SplineSet
55.2729 654.956 m 257
 149.728515625 562 l 257
 93.95703125 506.901367188 l 257
 39.5 561.358 l 257
 39.5 -10.5 l 257
 -39.5 -10.5 l 257
 -39.5 561.358 l 257
 -93.95703125 506.901367188 l 257
 -149.728515625 562 l 257
 -55.2729 654.956 l 257
 -142.7734375 746.456054688 l 257
 -86.95703125 801.598632812 l 257
 5.06054e-14 707.642 l 257
 93.95703125 803.598632812 l 261
 149.7734375 748.456054688 l 261
 55.2729 654.956 l 257
EndSplineSet
EndChar

StartChar: si_Aa
Encoding: 5 3462 54
Width: 863
VWidth: 0
Flags: HW
LayerCount: 2
Back
Fore
SplineSet
833.840820312 277 m 0
 833.840820312 3 647 -31 572 21 c 1
 617 115 l 1
 662 88 718.840820312 145 718.840820312 277 c 0
 718.840820312 393.890625 674.267578125 460.62109375 632.815429688 448.609375 c 0
 604.840820312 552 l 0
 690.853515625 581.90625 833.840820312 516.697265625 833.840820312 277 c 0
EndSplineSet
Refer: 6 3461 N 1 0 0 1 0 0 2
EndChar

StartChar: si_Tha
Encoding: 42 3502 79
Width: 551
VWidth: 0
Flags: HW
LayerCount: 2
Back
Fore
SplineSet
521.145507812 354 m 0
 521.145507812 118 440.145507812 0 260.145507812 0 c 0
 82.1455078125 0 30 136.287109375 30 252.395507812 c 0
 30 421.909179688 160.729492188 528.416992188 279.865234375 445.2578125 c 1
 242 345 l 1
 178.700195312 381.518554688 140 326.717773438 140 252.395507812 c 0
 140 189.243164062 167.225585938 115 260.145507812 115 c 0
 364.59765625 115 406.145507812 195.017578125 406.145507812 354 c 0
 406.145507812 535.698242188 359.145507812 668 248.145507812 735 c 1
 320.145507812 819 l 1
 458.145507812 728 521.145507812 569.741210938 521.145507812 354 c 0
383.145507812 559 m 1
 393.145507812 578 399.793945312 611.987304688 387.145507812 626 c 0
 380.948242188 632.865234375 346.145507812 658 335.145507812 654 c 1
 293.145507812 636 299.145507812 565 383.145507812 559 c 1
248.145507812 735 m 1
 314.145507812 783 l 1
 357.145507812 766 l 1
 407.051757812 738.635742188 477.514648438 493.768554688 399.145507812 463 c 1
 321.525390625 465.250976562 223.26171875 527 223.26171875 613.133789062 c 0
 223.26171875 688.51171875 296.053710938 699.581054688 248.145507812 735 c 1
EndSplineSet
EndChar

StartChar: si_Dha
Encoding: 44 3504 80
Width: 589
VWidth: 0
Flags: HW
HStem: 0 122<-1655.38 -1578.49 -1443.02 -1361.81> 307.551 84.4473<-1800.95 -1746.81 -1647.78 -1575.31>
VStem: -1774.95 106.338<134.908 289.206> -1558.31 95.9104<140.379 249.5>
LayerCount: 2
Back
Fore
SplineSet
559.026367188 293 m 0
 559.026367188 181.99609375 553.541992188 0 395.786132812 0 c 0
 339.866210938 0 301.84375 33.14453125 287.0234375 79.0302734375 c 1
 270.877929688 31.6025390625 231.465820312 0 178.786132812 0 c 0
 10.7861328125 0 18.1923828125 258 44.0712890625 341 c 0
 69.376953125 422.157226562 128.951171875 474.71484375 195.875 474.71484375 c 0
 223.641601562 474.71484375 252.673828125 465.66796875 281.046875 445.862304688 c 1
 243.181640625 345.604492188 l 1
 229.334960938 353.59375 216.6640625 357.211914062 205.318359375 357.211914062 c 0
 177.779296875 357.211914062 158.045898438 335.891601562 148.23046875 304 c 0
 136.235351562 265.024414062 130.787109375 124 178.786132812 115 c 0
 224.686523438 106.393554688 241.416992188 176.75 241.416992188 249.5 c 1
 337.328125 249.5 l 1
 337.328125 176.75 352.795898438 115 395.786132812 115 c 0
 443.786132812 115 444.026367188 239.958007812 444.026367188 293 c 0
 444.026367188 522.796875 380.374023438 639.884765625 255.452148438 639.884765625 c 0
 214.348632812 639.884765625 174.263671875 618.959960938 157.208007812 576.85546875 c 1
 48.17578125 613.029296875 l 1
 84.16015625 707.868164062 168.731445312 755 255.452148438 755 c 0
 456.235351562 755 558.541992188 599.055664062 559.026367188 293 c 0
EndSplineSet
EndChar

StartChar: si_Ttha
Encoding: 36 3496 88
Width: 589
VWidth: 0
Flags: HW
HStem: -223.984 90.209<-396.545 -253.962> -125.291 92.5664<-151.146 -105.305> 110.727 100.548<-474.98 -407.201> 467.437 98.792<-410.576 -240.492>
VStem: -585.214 104.852<216.158 288.365> -400.821 104.46<217.438 294.417> -148.522 105.02<164.787 371.336>
LayerCount: 2
Back
Fore
SplineSet
148.23046875 304 m 4
 136.235351562 265.024414062 130.787109375 124 178.786132812 115 c 4
 224.686523438 106.393554688 241.416992188 176.75 241.416992188 249.5 c 5
 337.328125 249.5 l 5
 337.328125 176.75 352.795898438 115 395.786132812 115 c 4
 443.786132812 115 444.026367188 239.958007812 444.026367188 293 c 4
 444.026367188 390 427.341796875 492.959960938 407.15625 556 c 4
 382.060546875 634.375976562 340.200195312 695.8671875 278.681640625 733 c 5
 350.681640625 817 l 5
 429.659179688 764.920898438 484.071289062 686.227539062 516.168945312 588 c 4
 540.157226562 514.590820312 559.026367188 410 559.026367188 293 c 4
 559.026367188 181.99609375 553.541992188 0 395.786132812 0 c 4
 339.866210938 0 301.84375 33.14453125 287.0234375 79.0302734375 c 5
 270.877929688 31.6025390625 231.465820312 0 178.786132812 0 c 4
 10.7861328125 0 18.1923828125 258 44.0712890625 341 c 4
 69.376953125 422.157226562 128.951171875 474.71484375 195.875 474.71484375 c 4
 223.641601562 474.71484375 252.673828125 465.66796875 281.046875 445.862304688 c 5
 243.181640625 345.604492188 l 5
 229.334960938 353.59375 216.6640625 357.211914062 205.318359375 357.211914062 c 4
 177.779296875 357.211914062 158.045898438 335.891601562 148.23046875 304 c 4
413.681640625 557 m 5
 423.681640625 576 430.331054688 609.987304688 417.681640625 624 c 4
 411.484375 630.865234375 376.681640625 656 365.681640625 652 c 5
 323.681640625 634 329.681640625 563 413.681640625 557 c 5
278.681640625 733 m 5
 344.681640625 781 l 5
 387.681640625 764 l 5
 437.587890625 736.635742188 508.05078125 491.768554688 429.681640625 461 c 5
 352.061523438 463.250976562 253.797851562 525 253.797851562 611.133789062 c 4
 253.797851562 686.51171875 326.58984375 697.581054688 278.681640625 733 c 5
EndSplineSet
EndChar

StartChar: uni25CC
Encoding: 84 9676 89
Width: 558
VWidth: 0
Flags: HW
LayerCount: 2
Back
Fore
SplineSet
66.4707818543 98.0369476861 m 0
 68.140474497 131.916884373 94.6503879611 158 129.272 158 c 0
 163.893691032 158 193.34935176 131.522354409 191.367122517 93.9630596653 c 1
 189.7001537 60.0856021184 163.188646607 34 128.567 34 c 0
 93.9308866578 34 64.4884348313 60.4210262638 66.4707818543 98.0369476861 c 0
207.9348693 39.0369151898 m 0
 209.531809025 71.5160393435 234.345884151 99 269.735 99 c 0
 305.220746984 99 332.738909446 71.0551373179 330.831089247 34.9622449672 c 1
 329.234274472 2.4875650985 304.423505635 -25 269.031 -25 c 0
 233.557511804 -25 206.023816017 2.84634363933 207.9348693 39.0369151898 c 0
9.51566623429 241.120755702 m 0
 10.4505908723 275.376908977 36.9302641823 302 71.8525 302 c 0
 106.472558379 302 135.932287674 275.524055635 133.948014514 237.960166004 c 1
 132.311539542 204.764604109 106.65694531 178 71.6475 178 c 0
 36.8875131702 178 8.44435640244 204.491631 9.51566623429 241.120755702 c 0
72.3127367428 386.677621865 m 0
 74.8636863232 419.799193762 101.185690178 445 135.145 445 c 0
 169.746838237 445 199.165977156 417.994912088 196.060343217 380.323304341 c 1
 193.512843794 347.20049348 167.185255778 322 133.228 322 c 0
 98.6000063387 322 69.20235137 348.927892154 72.3127367428 386.677621865 c 0
354.02724956 98.9439206008 m 0
 356.315052542 131.086435236 381.193082378 158 416.272 158 c 0
 452.055447167 158 479.592926166 129.433930121 476.810736401 93.0558258198 c 1
 474.524761527 60.916050352 449.646410369 34 414.567 34 c 0
 378.760706006 34 351.241641856 62.4887694027 354.02724956 98.9439206008 c 0
216.264602649 444.336634552 m 0
 217.703679372 476.873850139 242.396302546 505 278.347 505 c 0
 314.895157556 505 340.85345643 475.80662499 339.180394188 440.66340917 c 1
 337.75519627 408.513319457 313.631583854 380 277.475 380 c 0
 241.29603596 380 214.562894821 408.669489493 216.264602649 444.336634552 c 0
414.515959378 241.120521284 m 0
 415.450368389 275.377420656 441.931265812 302 476.853 302 c 0
 511.472636434 302 540.932283737 275.523981099 538.948014514 237.960166004 c 1
 537.311543731 204.76468907 511.657109871 178 476.647 178 c 0
 441.88705969 178 413.444664147 204.491895788 414.515959378 241.120521284 c 0
357.749445219 385.750451867 m 0
 359.61350208 419.955534022 386.779846875 445 420.645 445 c 0
 454.549296633 445 484.839665094 419.309037733 482.623561166 381.249611311 c 1
 480.761273475 347.043847973 453.590860264 322 419.728 322 c 0
 385.805621663 322 355.531817802 347.633055624 357.749445219 385.750451867 c 0
EndSplineSet
EndChar

